<svg width="326" height="202" viewBox="0 0 326 202" fill="none" xmlns="http://www.w3.org/2000/svg">
<g filter="url(#filter0_d_20_1956)">
<g clip-path="url(#clip0_20_1956)">
<rect x="9" y="12" width="296.94" height="173" rx="12.8604" fill="#0057BC"/>
<path d="M302.504 100.101C302.694 100.309 302.629 100.532 302.638 100.73C303.014 108.683 301.92 116.623 299.412 124.145C295.73 135.234 289.56 144.661 280.903 152.427C277.817 155.191 274.463 157.636 270.892 159.727C269.489 160.553 268.066 161.336 266.598 162.041C266.255 162.206 265.928 162.398 265.594 162.577C264.659 163.162 263.602 163.484 262.618 163.962C262.55 163.993 262.481 164.02 262.411 164.044C261.916 164.141 261.491 164.414 261.027 164.592C257.544 166.05 253.904 166.984 250.206 167.685C245.217 168.629 240.129 168.973 235.048 168.711C229.417 168.436 223.837 167.439 218.443 165.746C211.58 163.601 205.102 160.339 199.267 156.089C192.548 151.225 186.814 145.104 182.381 138.065C181.194 136.188 180.06 134.278 179.165 132.236C178.62 130.908 177.916 129.653 177.378 128.321C177.117 127.536 176.773 126.784 176.441 126.028C175.066 122.606 174.115 119.062 173.41 115.45C172.376 110.158 172.006 104.762 172.309 99.389C172.586 94.2504 173.465 89.1685 174.928 84.2492C176.663 78.4281 179.098 72.9277 182.318 67.7964C185.202 63.1898 188.638 58.9623 192.549 55.2085C195.937 51.9569 199.655 49.1443 203.635 46.6802C204.946 45.8676 206.321 45.1748 207.723 44.5357L209.768 43.638C209.958 43.5216 210.213 43.5182 210.352 43.3118L211.514 42.802C211.909 42.7837 212.215 42.5266 212.573 42.4074L214.315 41.6428C214.48 41.5845 214.626 41.4711 214.811 41.4699C222.594 38.6396 230.636 37.2792 238.929 37.653C256.184 38.4314 271.035 44.9268 283.482 57.1391C283.631 57.2842 283.777 57.4392 283.947 57.6128C283.839 57.7867 283.668 57.8206 283.527 57.8828C277.025 60.7361 270.524 63.5924 264.025 66.4518C263.672 66.6068 263.427 66.5738 263.109 66.355C253.25 59.5472 242.431 57.2745 230.747 59.1867C226.038 59.9574 221.567 61.4935 217.341 63.6792C208.429 68.2877 201.676 75.0658 197.451 84.2676C193.485 92.9024 192.575 101.94 194.472 111.302C195.288 115.328 196.647 119.17 198.476 122.84C205.044 136.016 217.143 145.438 231.214 148.187C237.053 149.341 243.055 149.243 248.83 147.899C252.44 147.071 255.919 145.756 259.174 143.991C267.898 139.264 274.111 132.189 278.226 123.173C280.197 118.852 281.457 114.312 282.064 109.587C282.118 109.169 282.277 108.966 282.653 108.802C289.121 105.978 295.586 103.144 302.047 100.302L302.504 100.101Z" fill="url(#paint0_linear_20_1956)" style="mix-blend-mode:overlay"/>
<path d="M300.091 67.2471C300.082 67.5554 299.949 67.6973 299.857 67.8543L296 74.3994C292.818 79.7988 289.638 85.2 286.46 90.6031C286.252 90.9577 285.972 91.1518 285.615 91.3079C277.466 94.8774 269.318 98.4511 261.173 102.029C261.057 102.08 260.941 102.131 260.825 102.182C260.19 102.472 260.313 102.349 260.324 102.963C260.345 104.267 260.289 105.567 260.082 106.851C258.972 113.723 255.583 119.138 249.732 122.817C239.614 129.178 226.842 126.473 219.794 117.475C212.108 107.66 213.442 93.711 222.817 85.7238C231.726 78.1322 244.912 78.6394 253.447 87.0195C254.027 87.5885 253.873 87.5257 254.571 87.2202C267.603 81.5014 280.635 75.7828 293.666 70.0643L300.091 67.2471Z" fill="url(#paint1_linear_20_1956)" style="mix-blend-mode:overlay"/>
<circle cx="27.3261" cy="29.9101" r="54.0136" stroke="url(#paint2_linear_20_1956)" stroke-width="8.35925"/>
</g>
</g>
<defs>
<filter id="filter0_d_20_1956" x="0.640746" y="0.425648" width="325.233" height="201.293" filterUnits="userSpaceOnUse" color-interpolation-filters="sRGB">
<feFlood flood-opacity="0" result="BackgroundImageFix"/>
<feColorMatrix in="SourceAlpha" type="matrix" values="0 0 0 0 0 0 0 0 0 0 0 0 0 0 0 0 0 0 127 0" result="hardAlpha"/>
<feOffset dx="5.78718" dy="2.57208"/>
<feGaussianBlur stdDeviation="7.07322"/>
<feComposite in2="hardAlpha" operator="out"/>
<feColorMatrix type="matrix" values="0 0 0 0 0 0 0 0 0 0 0 0 0 0 0 0 0 0 0.1 0"/>
<feBlend mode="normal" in2="BackgroundImageFix" result="effect1_dropShadow_20_1956"/>
<feBlend mode="normal" in="SourceGraphic" in2="effect1_dropShadow_20_1956" result="shape"/>
</filter>
<linearGradient id="paint0_linear_20_1956" x1="209.108" y1="43.8576" x2="261.946" y2="164.268" gradientUnits="userSpaceOnUse">
<stop stop-color="white" stop-opacity="0.62"/>
<stop offset="0.86" stop-color="#978C87" stop-opacity="0"/>
</linearGradient>
<linearGradient id="paint1_linear_20_1956" x1="250.78" y1="72.4061" x2="269.262" y2="114.523" gradientUnits="userSpaceOnUse">
<stop stop-color="white" stop-opacity="0.62"/>
<stop offset="0.86" stop-color="#978C87" stop-opacity="0"/>
</linearGradient>
<linearGradient id="paint2_linear_20_1956" x1="45.3306" y1="-42.7511" x2="-48.2287" y2="41.1629" gradientUnits="userSpaceOnUse">
<stop stop-color="white" stop-opacity="0.43"/>
<stop offset="1" stop-color="white" stop-opacity="0"/>
</linearGradient>
<clipPath id="clip0_20_1956">
<rect x="9" y="12" width="296.94" height="173" rx="12.8604" fill="white"/>
</clipPath>
</defs>
</svg>
