<svg width="202" height="326" viewBox="0 0 202 326" fill="none" xmlns="http://www.w3.org/2000/svg">
<g filter="url(#filter0_d_20_1973)">
<g clip-path="url(#clip0_20_1973)">
<rect x="9" y="308.94" width="296.94" height="173" rx="12.8604" transform="rotate(-90 9 308.94)" fill="#8E43E7"/>
<path d="M97.1008 15.4358C97.3093 15.2459 97.5316 15.3112 97.7298 15.3025C105.683 14.9266 113.623 16.0205 121.145 18.5283C132.234 22.2101 141.661 28.3797 149.427 37.0373C152.191 40.1234 154.636 43.4768 156.727 47.0482C157.553 48.4507 158.336 49.8746 159.041 51.342C159.206 51.6851 159.398 52.0117 159.577 52.3466C160.162 53.2813 160.484 54.3383 160.962 55.3223C160.993 55.3898 161.02 55.4589 161.044 55.5293C161.141 56.0241 161.414 56.4495 161.592 56.9127C163.05 60.3962 163.984 64.0365 164.685 67.7337C165.629 72.7233 165.973 77.8114 165.711 82.8922C165.436 88.5231 164.439 94.103 162.746 99.4976C160.601 106.36 157.339 112.838 153.089 118.673C148.225 125.392 142.104 131.126 135.065 135.559C133.188 136.746 131.278 137.88 129.236 138.775C127.908 139.32 126.653 140.025 125.321 140.562C124.536 140.824 123.784 141.167 123.028 141.499C119.606 142.874 116.062 143.825 112.45 144.53C107.158 145.564 101.762 145.934 96.389 145.631C91.2504 145.354 86.1685 144.475 81.2492 143.012C75.4281 141.277 69.9277 138.842 64.7964 135.622C60.1898 132.738 55.9623 129.302 52.2085 125.391C48.9569 122.003 46.1443 118.285 43.6802 114.305C42.8676 112.994 42.1748 111.619 41.5357 110.217L40.638 108.172C40.5216 107.982 40.5182 107.728 40.3118 107.588L39.802 106.427C39.7837 106.031 39.5266 105.725 39.4074 105.367L38.6428 103.625C38.5845 103.46 38.4711 103.314 38.4699 103.129C35.6396 95.3458 34.2792 87.3045 34.653 79.0112C35.4314 61.7563 41.9268 46.9052 54.1391 34.4579C54.2842 34.309 54.4392 34.1634 54.6128 33.9931C54.7867 34.1017 54.8206 34.2717 54.8828 34.4134C57.7361 40.9156 60.5924 47.4163 63.4518 53.9153C63.6068 54.2685 63.5738 54.5129 63.355 54.8312C56.5472 64.6907 54.2745 75.5094 56.1867 87.1932C56.9574 91.9018 58.4935 96.3729 60.6792 100.599C65.2877 109.511 72.0658 116.264 81.2676 120.489C89.9024 124.455 98.9398 125.365 108.302 123.468C112.328 122.652 116.17 121.293 119.84 119.464C133.016 112.896 142.438 100.797 145.187 86.7258C146.341 80.8876 146.243 74.8851 144.899 69.1099C144.071 65.4998 142.756 62.0208 140.991 58.7659C136.264 50.0417 129.189 43.829 120.173 39.7145C115.852 37.7432 111.312 36.4828 106.587 35.8757C106.169 35.8222 105.966 35.6633 105.802 35.2869C102.978 28.8191 100.144 22.3546 97.3017 15.8935L97.1008 15.4358Z" fill="url(#paint0_linear_20_1973)" style="mix-blend-mode:overlay"/>
<path d="M64.2471 17.849C64.5554 17.8578 64.6973 17.9909 64.8543 18.0833L71.3993 21.9399C76.7988 25.1221 82.2 28.3021 87.6031 31.4799C87.9577 31.6887 88.1518 31.9679 88.3079 32.3253C91.8774 40.4745 95.4511 48.6217 99.0292 56.767C99.0802 56.8832 99.1312 56.9994 99.1821 57.1155C99.4719 57.7503 99.349 57.6269 99.9631 57.6165C101.267 57.5951 102.567 57.6515 103.851 57.8577C110.723 58.9684 116.138 62.3572 119.817 68.2077C126.178 78.3257 123.473 91.0979 114.475 98.1462C104.66 105.833 90.711 104.498 82.7238 95.1237C75.1322 86.2141 75.6394 73.0281 84.0195 64.493C84.5885 63.9129 84.5257 64.0672 84.2202 63.3694C78.5014 50.3371 72.7828 37.3052 67.0643 24.2738L64.2471 17.849Z" fill="url(#paint1_linear_20_1973)" style="mix-blend-mode:overlay"/>
<circle cx="26.9099" cy="290.614" r="54.0136" transform="rotate(-90 26.9099 290.614)" stroke="url(#paint2_linear_20_1973)" stroke-width="8.35925"/>
</g>
</g>
<defs>
<filter id="filter0_d_20_1973" x="0.640746" y="0.425648" width="201.293" height="325.233" filterUnits="userSpaceOnUse" color-interpolation-filters="sRGB">
<feFlood flood-opacity="0" result="BackgroundImageFix"/>
<feColorMatrix in="SourceAlpha" type="matrix" values="0 0 0 0 0 0 0 0 0 0 0 0 0 0 0 0 0 0 127 0" result="hardAlpha"/>
<feOffset dx="5.78718" dy="2.57208"/>
<feGaussianBlur stdDeviation="7.07322"/>
<feComposite in2="hardAlpha" operator="out"/>
<feColorMatrix type="matrix" values="0 0 0 0 0 0 0 0 0 0 0 0 0 0 0 0 0 0 0.1 0"/>
<feBlend mode="normal" in2="BackgroundImageFix" result="effect1_dropShadow_20_1973"/>
<feBlend mode="normal" in="SourceGraphic" in2="effect1_dropShadow_20_1973" result="shape"/>
</filter>
<linearGradient id="paint0_linear_20_1973" x1="40.8576" y1="108.832" x2="161.268" y2="55.9939" gradientUnits="userSpaceOnUse">
<stop stop-color="white" stop-opacity="0.62"/>
<stop offset="0.86" stop-color="#978C87" stop-opacity="0"/>
</linearGradient>
<linearGradient id="paint1_linear_20_1973" x1="69.4061" y1="67.1603" x2="111.523" y2="48.6785" gradientUnits="userSpaceOnUse">
<stop stop-color="white" stop-opacity="0.62"/>
<stop offset="0.86" stop-color="#978C87" stop-opacity="0"/>
</linearGradient>
<linearGradient id="paint2_linear_20_1973" x1="44.9145" y1="217.953" x2="-48.6449" y2="301.867" gradientUnits="userSpaceOnUse">
<stop stop-color="white" stop-opacity="0.43"/>
<stop offset="1" stop-color="white" stop-opacity="0"/>
</linearGradient>
<clipPath id="clip0_20_1973">
<rect x="9" y="308.94" width="296.94" height="173" rx="12.8604" transform="rotate(-90 9 308.94)" fill="white"/>
</clipPath>
</defs>
</svg> 