<svg width="392" height="242" viewBox="0 0 392 242" fill="none" xmlns="http://www.w3.org/2000/svg">
<g clip-path="url(#clip0_732_1451)" filter="url(#filter0_d_732_1451)">
<rect width="356.689" height="207.81" transform="translate(11 14)" fill="#0057BC"/>
<path d="M363.562 119.829C363.79 120.079 363.711 120.346 363.722 120.584C364.173 130.137 362.859 139.675 359.847 148.711C355.424 162.031 348.013 173.355 337.614 182.684C333.906 186.004 329.878 188.941 325.588 191.452C323.904 192.444 322.193 193.385 320.43 194.232C320.018 194.431 319.626 194.661 319.224 194.876C318.101 195.579 316.831 195.966 315.649 196.539C315.568 196.577 315.485 196.61 315.401 196.638C314.806 196.755 314.295 197.083 313.739 197.296C309.554 199.048 305.182 200.17 300.741 201.012C294.747 202.145 288.635 202.559 282.532 202.245C275.768 201.913 269.065 200.716 262.585 198.682C254.342 196.106 246.56 192.187 239.551 187.082C231.481 181.239 224.593 173.887 219.268 165.431C217.841 163.177 216.48 160.883 215.405 158.43C214.75 156.834 213.904 155.327 213.258 153.727C212.944 152.784 212.531 151.88 212.132 150.972C210.481 146.861 209.339 142.605 208.491 138.266C207.25 131.909 206.805 125.427 207.169 118.973C207.502 112.801 208.558 106.696 210.315 100.787C212.4 93.7949 215.325 87.1878 219.192 81.024C222.656 75.4905 226.784 70.4124 231.482 65.9032C235.552 61.9974 240.017 58.6188 244.798 55.6589C246.373 54.6828 248.024 53.8505 249.709 53.0828L252.166 52.0045C252.394 51.8648 252.699 51.8606 252.867 51.6127L254.262 51.0004C254.737 50.9783 255.105 50.6695 255.534 50.5264L257.627 49.6079C257.825 49.5378 258.001 49.4017 258.224 49.4002C267.573 46.0004 277.232 44.3662 287.194 44.8153C307.921 45.7503 325.76 53.5527 340.712 68.2223C340.891 68.3966 341.066 68.5828 341.27 68.7912C341.14 69.0002 340.936 69.0409 340.765 69.1156C332.955 72.543 325.146 75.9741 317.339 79.4088C316.915 79.595 316.622 79.5553 316.239 79.2925C304.396 71.1149 291.4 68.3849 277.366 70.6819C271.709 71.6076 266.339 73.4529 261.262 76.0783C250.557 81.6141 242.445 89.7561 237.37 100.809C232.606 111.182 231.513 122.037 233.792 133.284C234.772 138.12 236.405 142.735 238.601 147.143C246.491 162.97 261.024 174.288 277.927 177.59C284.94 178.977 292.15 178.859 299.087 177.245C303.424 176.249 307.603 174.671 311.513 172.551C321.992 166.872 329.455 158.374 334.398 147.543C336.766 142.353 338.28 136.899 339.009 131.223C339.073 130.721 339.264 130.477 339.716 130.281C347.485 126.888 355.251 123.485 363.012 120.07L363.562 119.829Z" fill="url(#paint0_linear_732_1451)" style="mix-blend-mode:overlay"/>
<path d="M360.663 80.3651C360.653 80.7354 360.493 80.9058 360.382 81.0945L355.749 88.9564C351.927 95.4423 348.107 101.93 344.29 108.421C344.039 108.847 343.703 109.08 343.274 109.267C333.485 113.555 323.699 117.848 313.914 122.146C313.775 122.207 313.635 122.268 313.496 122.33C312.733 122.678 312.881 122.53 312.894 123.268C312.92 124.834 312.852 126.395 312.604 127.937C311.27 136.192 307.199 142.697 300.172 147.116C288.018 154.758 272.676 151.508 264.209 140.699C254.976 128.91 256.579 112.154 267.84 102.56C278.542 93.4403 294.381 94.0497 304.634 104.116C305.331 104.799 305.145 104.724 305.984 104.357C321.638 97.4875 337.292 90.6182 352.946 83.7491L360.663 80.3651Z" fill="url(#paint1_linear_732_1451)" style="mix-blend-mode:overlay"/>
<circle cx="33.0135" cy="35.5137" r="64.882" stroke="url(#paint2_linear_732_1451)" stroke-width="10.0413"/>
</g>
<defs>
<filter id="filter0_d_732_1451" x="0.958741" y="0.096719" width="390.675" height="241.796" filterUnits="userSpaceOnUse" color-interpolation-filters="sRGB">
<feFlood flood-opacity="0" result="BackgroundImageFix"/>
<feColorMatrix in="SourceAlpha" type="matrix" values="0 0 0 0 0 0 0 0 0 0 0 0 0 0 0 0 0 0 127 0" result="hardAlpha"/>
<feOffset dx="6.95164" dy="3.08962"/>
<feGaussianBlur stdDeviation="8.49645"/>
<feComposite in2="hardAlpha" operator="out"/>
<feColorMatrix type="matrix" values="0 0 0 0 0 0 0 0 0 0 0 0 0 0 0 0 0 0 0.1 0"/>
<feBlend mode="normal" in2="BackgroundImageFix" result="effect1_dropShadow_732_1451"/>
<feBlend mode="normal" in="SourceGraphic" in2="effect1_dropShadow_732_1451" result="shape"/>
</filter>
<linearGradient id="paint0_linear_732_1451" x1="251.373" y1="52.2684" x2="314.843" y2="196.907" gradientUnits="userSpaceOnUse">
<stop stop-color="white" stop-opacity="0.62"/>
<stop offset="0.86" stop-color="#978C87" stop-opacity="0"/>
</linearGradient>
<linearGradient id="paint1_linear_732_1451" x1="301.43" y1="86.5621" x2="323.63" y2="137.154" gradientUnits="userSpaceOnUse">
<stop stop-color="white" stop-opacity="0.62"/>
<stop offset="0.86" stop-color="#978C87" stop-opacity="0"/>
</linearGradient>
<linearGradient id="paint2_linear_732_1451" x1="54.6408" y1="-51.768" x2="-57.744" y2="49.0308" gradientUnits="userSpaceOnUse">
<stop stop-color="white" stop-opacity="0.43"/>
<stop offset="1" stop-color="white" stop-opacity="0"/>
</linearGradient>
<clipPath id="clip0_732_1451">
<rect width="356.689" height="207.81" fill="white" transform="translate(11 14)"/>
</clipPath>
</defs>
</svg>
